<svg aria-hidden="true" style="position: absolute; width: 0; height: 0; overflow: hidden;" version="1.1" xmlns="http://www.w3.org/2000/svg" xmlns:xlink="http://www.w3.org/1999/xlink">
<defs>
<symbol id="icon-facebook" viewBox="0 0 32 32">
<path d="M19 6h5v-6h-5c-3.86 0-7 3.14-7 7v3h-4v6h4v16h6v-16h5l1-6h-6v-3c0-0.542 0.458-1 1-1z"></path>
</symbol>
<symbol id="icon-instagram" viewBox="0 0 32 32">
<path d="M16 2.881c4.275 0 4.781 0.019 6.462 0.094 1.563 0.069 2.406 0.331 2.969 0.55 0.744 0.288 1.281 0.638 1.837 1.194 0.563 0.563 0.906 1.094 1.2 1.838 0.219 0.563 0.481 1.412 0.55 2.969 0.075 1.688 0.094 2.194 0.094 6.463s-0.019 4.781-0.094 6.463c-0.069 1.563-0.331 2.406-0.55 2.969-0.288 0.744-0.637 1.281-1.194 1.837-0.563 0.563-1.094 0.906-1.837 1.2-0.563 0.219-1.413 0.481-2.969 0.55-1.688 0.075-2.194 0.094-6.463 0.094s-4.781-0.019-6.463-0.094c-1.563-0.069-2.406-0.331-2.969-0.55-0.744-0.288-1.281-0.637-1.838-1.194-0.563-0.563-0.906-1.094-1.2-1.837-0.219-0.563-0.481-1.413-0.55-2.969-0.075-1.688-0.094-2.194-0.094-6.463s0.019-4.781 0.094-6.463c0.069-1.563 0.331-2.406 0.55-2.969 0.288-0.744 0.638-1.281 1.194-1.838 0.563-0.563 1.094-0.906 1.838-1.2 0.563-0.219 1.412-0.481 2.969-0.55 1.681-0.075 2.188-0.094 6.463-0.094zM16 0c-4.344 0-4.887 0.019-6.594 0.094-1.7 0.075-2.869 0.35-3.881 0.744-1.056 0.412-1.95 0.956-2.837 1.85-0.894 0.888-1.438 1.781-1.85 2.831-0.394 1.019-0.669 2.181-0.744 3.881-0.075 1.713-0.094 2.256-0.094 6.6s0.019 4.887 0.094 6.594c0.075 1.7 0.35 2.869 0.744 3.881 0.413 1.056 0.956 1.95 1.85 2.837 0.887 0.887 1.781 1.438 2.831 1.844 1.019 0.394 2.181 0.669 3.881 0.744 1.706 0.075 2.25 0.094 6.594 0.094s4.888-0.019 6.594-0.094c1.7-0.075 2.869-0.35 3.881-0.744 1.050-0.406 1.944-0.956 2.831-1.844s1.438-1.781 1.844-2.831c0.394-1.019 0.669-2.181 0.744-3.881 0.075-1.706 0.094-2.25 0.094-6.594s-0.019-4.887-0.094-6.594c-0.075-1.7-0.35-2.869-0.744-3.881-0.394-1.063-0.938-1.956-1.831-2.844-0.887-0.887-1.781-1.438-2.831-1.844-1.019-0.394-2.181-0.669-3.881-0.744-1.712-0.081-2.256-0.1-6.6-0.1v0z"></path>
<path d="M16 7.781c-4.537 0-8.219 3.681-8.219 8.219s3.681 8.219 8.219 8.219 8.219-3.681 8.219-8.219c0-4.537-3.681-8.219-8.219-8.219zM16 21.331c-2.944 0-5.331-2.387-5.331-5.331s2.387-5.331 5.331-5.331c2.944 0 5.331 2.387 5.331 5.331s-2.387 5.331-5.331 5.331z"></path>
<path d="M26.462 7.456c0 1.060-0.859 1.919-1.919 1.919s-1.919-0.859-1.919-1.919c0-1.060 0.859-1.919 1.919-1.919s1.919 0.859 1.919 1.919z"></path>
</symbol>
<symbol id="icon-whatsapp" viewBox="0 0 32 32">
<path d="M26.576 5.359c-2.807-2.813-6.539-4.359-10.518-4.359-8.191 0-14.859 6.668-14.859 14.865 0 2.619 0.686 5.18 1.986 7.43l-2.109 7.705 7.881-2.068c2.174 1.184 4.617 1.811 7.102 1.811h0.006c0 0 0 0 0 0 8.191 0 14.865-6.668 14.865-14.865 0-3.973-1.547-7.705-4.354-10.518zM16.064 28.234v0c-2.221 0-4.395-0.598-6.293-1.723l-0.451-0.27-4.676 1.225 1.248-4.559-0.293-0.469c-1.242-1.963-1.893-4.236-1.893-6.574 0-6.814 5.543-12.357 12.363-12.357 3.299 0 6.404 1.289 8.736 3.621 2.332 2.338 3.615 5.438 3.615 8.742-0.006 6.82-5.549 12.363-12.357 12.363zM22.838 18.977c-0.369-0.188-2.197-1.084-2.537-1.207s-0.586-0.188-0.838 0.188c-0.246 0.369-0.961 1.207-1.178 1.459-0.217 0.246-0.434 0.281-0.803 0.094s-1.57-0.58-2.988-1.846c-1.102-0.984-1.852-2.203-2.068-2.572s-0.023-0.574 0.164-0.756c0.17-0.164 0.369-0.434 0.557-0.65s0.246-0.369 0.369-0.621c0.123-0.246 0.064-0.463-0.029-0.65s-0.838-2.016-1.143-2.76c-0.299-0.727-0.609-0.627-0.838-0.639-0.217-0.012-0.463-0.012-0.709-0.012s-0.65 0.094-0.99 0.463c-0.34 0.369-1.301 1.271-1.301 3.1s1.33 3.592 1.518 3.844c0.188 0.246 2.619 4.002 6.346 5.607 0.885 0.381 1.576 0.609 2.115 0.785 0.891 0.281 1.699 0.24 2.338 0.146 0.715-0.105 2.197-0.896 2.508-1.764s0.311-1.611 0.217-1.764c-0.088-0.164-0.334-0.258-0.709-0.445z"></path>
</symbol>
</defs>
</svg>
